<?xml version="1.0" standalone="no"?>
<!DOCTYPE svg PUBLIC "-//W3C//DTD SVG 20010904//EN"
 "http://www.w3.org/TR/2001/REC-SVG-20010904/DTD/svg10.dtd">
<svg version="1.0" xmlns="http://www.w3.org/2000/svg"
 width="30.000000pt" height="30.000000pt" viewBox="0 0 30.000000 30.000000"
 preserveAspectRatio="xMidYMid meet">
<metadata>
Created by potrace 1.15, written by Peter Selinger 2001-2017
</metadata>
<g transform="translate(0.000000,30.000000) scale(0.100000,-0.100000)"
fill="#000000" stroke="none">
<path d="M73 202 c-29 -20 -53 -44 -53 -52 0 -15 99 -90 119 -90 6 0 11 16 11
35 l0 35 49 -35 c26 -19 53 -35 60 -35 7 0 11 30 11 90 0 60 -4 90 -11 90 -7
0 -34 -16 -60 -35 l-49 -35 0 35 c0 44 -11 44 -77 -3z"/>
</g>
</svg>
